<svg xmlns="http://www.w3.org/2000/svg" x="0px" y="0px" viewBox="0 0 384 384" style="enable-background:new 0 0 384 384;" xml:space="preserve">

	<style>
	.st0 {
		fill: #98e5fb;
	}
	.st1 {
		fill: #62dafa;
	}
	.st2 {
		fill: #eeecee;
	}
	.st3 {
		fill: #8694dd;
	}
	.st4 {
		fill: #e4e0e4;
	}
	.st5 {
		fill: #8795dd;
	}
	.st6 {
		fill: #6c7fd7;
	}
	.st7 {
		fill: #7a6d79;
	}
	.st8 {
		fill: #7a707c;
	}
	.st9 {
		fill: #7a6f7b;
	}
	.st10 {
		fill: #7a6e7a;
	}
	.st11 {
		fill: #f69595;
	}
	</style>

	<path class="st0" d="M189.6,74.3c-0.7-17.1,3.5-16.5-17.3-16.5c-25,0.1-49.9,0-74.9,0c-8.4,0-9.4-1.7-7.9-9.8
	c1.3-7.3,5-11.7,11.8-14.9c21.6-10.3,42.8-21.3,64.2-32c19.5,0,39,0,58.5,0c3.6,2.1,3.8,5.6,3.8,9.1c0.1,27.9,0.1,55.8,0,83.8
	c0,2.7-0.1,5.5-1.9,7.9c-12.2,3.1-24.4,4.1-36.6-0.4c0.1-5.4,0.2-10.8,0.3-16.2c3.1-3,7.1-1.6,10.7-2.2c2-0.3,4.5-0.4,4.7-2.9
	c0.2-3.2-2.7-3-4.8-3.4C196.6,76,192.6,77.5,189.6,74.3z" />
	<path class="st1" d="M225.5,101.4c0-30.3,0-60.6,0-90.9c0-3.2,0.4-6.5-1.5-9.4c6.5,0,13,0,19.5,0c2.5,3.6,1.2,7.8,1.7,11.7
	c3.5,8.7,3.2,17.3-0.1,25.9c0,6.4,0,12.8,0,19.2c3.3,8.6,3.5,17.3,0.2,26c0,5.8,0,11.6-0.1,17.4c-3.9,3.8-8.8,2.1-13.3,2.4
	C229.5,103.6,227.2,103.4,225.5,101.4z" />
	<path class="st2" d="M178.8,293.5c-2-2.1-1.3-4.7-1.3-7.1c-0.1-9.7-0.4-19.4,0.1-29.1c0.6-11.6-1.5-21.3-9.1-31.4
	c-16.8-22.2-13.3-52.4,6.1-72.8c1.2-1.2,2.1-2.7,3.2-4.1c7.1-9.7,17.2-13.7,28.7-15c23.5,2.6,45.7,24.5,49.2,48.7
	c4.6,31.2-13,59.8-42.9,69.6c-1.9,0.6-3.8,1.1-5.9,1.1c-7.3,0-13.4-3.4-19.5-6.8c-4.7-2.7-6.5-2.2-6.3,3.6c0.2,11.4,0.1,22.9,0,34.3
	C181,287.7,181.7,291.1,178.8,293.5z" />
	<path class="st3" d="M205.8,135.9c-11.1,0.7-19.5,7.2-28.2,13.2c-2.5-4.2-6.8-5.6-11.1-7c-23.9-8.1-47.7-16.2-71.5-24.4
	c-3.3-1.1-7.4-1.5-7.8-6.7c-0.6-7.7,0.6-9.4,8.3-9.4c31.2-0.1,62.5-0.1,93.7-0.2c12,0,24.1,0,36.1,0c2,0.1,4,0.2,6.1,0.3
	c1.9,1,3.2,2.6,3.3,4.7c0.3,9.8,2,19.7-1.1,29.4c-5.6,3-11.4,0.6-17.1,0.5C213,136.2,209.5,134.2,205.8,135.9z" />
	<path class="st4" d="M205.8,135.9c9.1-2.9,18.1-1.6,27.2-0.1c8.8-0.3,15.6,3.4,20.7,10.4c10.6,8.3,16.8,19.6,21.2,32
	c5.2,7.7,5.2,23.2,0.1,30.8c-3.9,12-11,21.9-19.8,30.8c-4.7,7.6-12.8,9.6-20.4,12.5c-6.8,2.7-14,3.4-21.2,2.9
	c-2.5-0.2-5.7,0.4-6.4-3.5c25.4-4.5,46.3-29.8,46.7-55.5c0.5-27.1-11.8-45.8-36.1-57.1C214.2,137.2,210.2,135.7,205.8,135.9z" />
	<path class="st5" d="M207.4,251.6c9.7,3.5,19.2,0.7,28.7-1.4c2.6,2.6,2.2,5.9,2.2,9.1c0.1,9.1,0.4,18.3-0.1,27.4
	c-0.2,4.5,1.2,6.3,5.8,6.1c3.1-0.2,6.5-0.4,9,2.4c-2.3,1.8-5.2,0.6-7.7,1.3c-4.2,3.3-8.9,1.9-13.5,1.3c-3.2-0.4-6.4-0.5-9.6-0.6
	c-8.3,0.4-16.7,0.1-25,0.1c-2.7,0-5.4-0.3-7.8-1.9c-3.4-0.9-7.4,1.1-10.5-1.9c0-17.6,0-35.3,0-53.8
	C188.6,244.6,196.8,251.1,207.4,251.6z" />
	<path class="st0" d="M189.2,295.5c11.1,0,22.2-0.1,33.3-0.1c2.6,2.6,2.4,5.9,2.4,9.1c0.1,23.7,0.1,47.4,0,71.1
	c0,3.2,0.2,6.6-2.3,9.2c-7.2,0.1-14.4,0.2-21.7,0.2c-10.9,0-11.6-0.6-11.5-11.3c0-1.2,0.1-2.5,0.2-3.7c3.4-2.9,7.6-1.3,11.3-2.2
	c2.2-0.5,4.6-1.1,4.4-4c-0.2-2.3-2.4-2.9-4.3-3.4c-3.8-0.9-8,0.6-11.4-2.1c0-3.7,0-7.3,0-11c3.5-2.7,7.7-1.1,11.5-2.1
	c2.2-0.6,4.6-1.3,4.3-4.2c-0.3-2.3-2.4-2.9-4.4-3.3c-3.8-0.7-8,0.8-11.4-2.1c0-4-0.1-7.9-0.1-11.9c3.2-3.4,7.6-1.6,11.4-2.4
	c1.9-0.4,4.4-0.5,4.1-3.3c-0.2-2.1-2.2-2.4-3.9-2.8c-3.8-0.8-8.1,0.8-11.5-2.3C189.5,307.1,189.4,301.3,189.2,295.5z" />
	<path class="st1" d="M222.6,384.8c0-29.8-0.1-59.6-0.1-89.4c7.6-1.1,15,1.9,22.6,1.2c0,26.1,0,52.1,0,78.2
	c0,10.2-0.1,10.3-10.6,10.3C230.6,385,226.6,384.8,222.6,384.8z" />
	<path class="st6" d="M252.8,295.2c-0.5-0.1-1-0.1-1.5-0.2c-5.1-0.7-12,2.4-15-1.2c-2.4-2.9-0.4-9.5-0.4-14.4c0-9.7,0-19.5,0.1-29.2
	c6.9-2.6,13.2-6.4,19.3-10.5c0.5,16,0.9,31.9,1.3,47.9C256.8,290.7,257.5,294.4,252.8,295.2z" />
	<path class="st0" d="M245.1,38.6c0-8.6,0.1-17.3,0.1-25.9c11.7,0.1,23.4,0.1,35,0.3c6.6,0.1,7.9,2.2,5.5,8.3
	c-3.9,9.9-12.2,15.4-23,15.9C256.9,37.5,250.8,35.7,245.1,38.6z" />
	<path class="st0" d="M245.3,83.8c-0.1-8.7-0.1-17.3-0.2-26c5.6,3,11.7,1.2,17.6,1.4c10.8,0.4,19.1,5.9,23,15.8
	c2.4,6.2,1.2,8.3-5.4,8.4C268.6,83.7,257,83.7,245.3,83.8z" />
	<path class="st6" d="M253.8,146.2c-6.4-4.4-13.3-7.9-20.7-10.4c-0.9-11.4,1.6-22.9-1.5-34.2c4.6-0.1,9.1-0.3,13.7-0.4
	c6-0.5,8.5,2.3,8.5,8.3C253.5,121.8,253.7,134,253.8,146.2z" />
	<path class="st7" d="M275.2,208.9c1.9-10.3,2-20.5-0.1-30.8c6.2,0,12.4,0,18.7-0.2c4.6-0.2,7,1.6,7,6.5c-0.1,6-0.2,12,0,17.9
	c0.1,4.9-2.4,6.7-6.8,6.7C287.6,209,281.4,209,275.2,208.9z" />
	<path class="st8" d="M189.7,335.6c4,0,7.9,0,11.9-0.1c3.9-0.1,6.5,1.8,6.7,5.4c0.3,4.2-2.8,6.2-6.7,6.3c-4,0.2-7.9,0-11.9,0
	C189.7,343.3,189.7,339.5,189.7,335.6z" />
	<path class="st9" d="M189.7,358.2c4.2,0,8.4-0.2,12.6,0c3.3,0.2,5.8,2.1,6,5.5c0.2,3.8-2.4,5.9-6,6.2c-4.2,0.3-8.4,0-12.6,0
	C189.7,366,189.7,362.1,189.7,358.2z" />
	<path class="st10" d="M189.6,74.3c4.4,0,8.9-0.2,13.3-0.1c3.1,0.1,5.3,1.9,5.4,5c0,3.2-1.7,5.7-5.3,5.9c-4.4,0.2-8.9,0-13.3,0
	C189.6,81.5,189.6,77.9,189.6,74.3z" />
	<path class="st10" d="M189.6,313c4.4,0,8.9-0.2,13.3,0c3.6,0.1,5.4,2.6,5.3,5.9c-0.1,3.1-2.3,4.9-5.4,5c-4.4,0.1-8.9,0-13.3-0.1
	C189.6,320.1,189.6,316.6,189.6,313z" />
	<path class="st5" d="M205.1,188.5c2.1-3.6,4.7-6.6,8.9-7.3c6.4-1.1,12,0.4,14.9,6.9c2.8,6.4,0.9,11.8-4.4,15.7
	c-5.6,4.2-11.1,3.4-16-1.5c-1-1-1.9-2.3-2.8-3.4C202.2,195.6,201.2,192.1,205.1,188.5z" />
	<path class="st11" d="M205.1,188.5c-1,3.5-0.8,7,0.5,10.4c-6.5,0-13-0.1-19.5,0.2c-4.4,0.2-7.7-1.2-7.6-6c0.2-4.9,4.2-4.8,7.8-4.8
	C192.6,188.3,198.8,188.4,205.1,188.5z" />
</svg>
