<svg xmlns="http://www.w3.org/2000/svg" x="0px" y="0px" viewBox="0 0 384 384" style="enable-background:new 0 0 384 384;" xml:space="preserve">
	<style type="text/css">
	.st0 {
		fill: #dc7f66;
	}
	.st1 {
		fill: #e3917f;
	}
	.st2 {
		fill: #678c97;
	}
	.st3 {
		fill: #fee077;
	}
	.st4 {
		fill: #537983;
	}
	.st5 {
		fill: #f8f2f0;
	}
	.st6 {
		fill: #f2e9e5;
	}
	.st7 {
		fill: #fdcd85;
	}
	.st8 {
		fill: #e0d2cd;
	}
	.st9 {
		fill: #fdce84;
	}
	</style>

	<path class="st0" d="M339.6,308.7c11.2-0.1,22.4,0.1,33.6-0.3c6.1-0.2,9.5,3.5,12.8,7.6c0,19.5,0,39,0,58.5
	c-3.5,5.8-8.6,8.2-15.4,7.9c-10.3-0.4-20.7-0.3-31.1-0.4c-0.6-1.3,0-2.4,0.5-3.5c3.6-7.4,3.3-7.9-5.2-8c-4.7-0.1-9.4,0.2-14.1-0.1
	c-10.9-0.7-20.6,1.9-29.1,8.9c-1.3,1.1-3.1,1.6-4.5,2.5c-7,0.1-14,0.1-21,0.2c-0.1-0.7-0.2-1.6,0.4-2.1c16-13.6,31.7-27.9,55.2-25.7
	c5.4,0.5,11,0.3,16.5-0.1c2.7-0.2,5-1,5-4.3c0-3.2-2-4.3-4.8-4.6c-2.2-0.2-4.5-0.2-6.7-0.2c-31.9,0-63.9,0.1-95.8,0
	c-15-0.1-28.4,2.8-39.6,14.1c-9.8,9.8-23.5,10.1-36.4,11.4c-0.5,0.1-1,0.1-1.5,0c-16-1.7-30.7,1.2-43.6,11.3c-7,0-14,0.1-21,0.1
	c-0.1-0.5-0.2-1.2,0-1.4c15.7-12.7,29.9-28.6,53.1-26.4c5.7,0.5,11.5,0.2,17.2,0c9-0.2,17.3-2.9,24-9c11.8-10.9,25.5-15.4,41.7-15.1
	c33.9,0.6,67.8-0.2,101.8,0.4c12.2,0.2,14.8-2.7,10-16.2C340.6,312.4,339,310.9,339.6,308.7z" />
	<path class="st1" d="M339.6,308.7c1.5,3.3,5.5,4.8,6,9.2c1.6,13.7,0.9,14.6-13.1,14.6c-35.9,0-71.8,0.2-107.8-0.1
	c-13.6-0.1-24.8,4.7-34.4,13.6c-7.7,7.2-16.7,10.2-27.1,10.6c-11.1,0.4-22.4-1.5-33.5,1.4c-7.5,2-13.6,6.3-19.1,11.2
	c-5.4,4.8-11.1,9-17.2,12.8c-13.7,0-27.4,0.2-41.1,0c-8.5-0.1-12.8-4.5-12.9-13c-0.1-11.7,0.1-23.4,0.1-35.1c3.2-2.8,7-2.1,10.7-2.1
	c20.1-0.1,40.3-0.2,60.4,0c12.3,0.1,22.9-3.8,32.1-11.9c6.6-5.8,13.4-11.2,22.2-13.2c16.4-1.3,32.8-0.5,49.2-0.4
	c2.7,0,5.5,0.1,8.2-0.2c11.2-0.7,22.2,1.1,33.2,2.1c13.4,0,26.8,0,40.3,0c6.1-0.8,12-2.7,18.2-2.2c2.7,0.2,5.5,0,7.6,2.2
	C327.7,308.5,333.6,308.6,339.6,308.7z" />
	<path class="st2" d="M87.5,139.1c-22-15.9-44.2-31.5-65.9-47.9C-2.2,73.1-4.7,40.3,15.5,18.9c14.1-1.5,25.6,4.6,36.6,12.5
	C59.8,37,66.1,44,72.2,51.3c15.6,18.8,32.2,36.7,47.2,55.8C117.4,113.8,94,137.2,87.5,139.1z" />
	<path class="st3" d="M222.4,308.4c-19.5,0.1-39,0.2-58.5,0.3c-7.5,2-15.1,2.6-22.8,2.1c-30,0.4-60,0.1-89.9,0.2
	c-3.9,0-8.1,0.7-11.4-2.4c-0.1-13.7-0.3-27.4-0.2-41.2c0-6.6,3.5-10.7,10.3-11.5c1.9-1.1,3.9-0.6,5.9-0.6c31.1,0,62.3,0.1,93.4-0.1
	c5.6,0,9.4,1.8,12.7,6.2c5.8,7.8,10.8,16.2,18.2,22.7c10.5,9.2,22.2,15.9,35.8,19.5C218.5,304.3,221.9,304.4,222.4,308.4z" />
	<path class="st1" d="M114.5,382c7.4-8.3,16-13.8,27.7-13.5c13.6,0.3,27.3,0.5,40.6-3.9c5.3-1.8,10.2-4.4,13.8-8.5
	c8.7-9.8,20-12.8,32.2-12.9c36.7-0.3,73.3,0,110-0.2c5.2,0,6.9,1.6,6.9,6.8c0,5.1-1.5,6.9-6.8,6.9c-10.9,0.1-21.8-1-32.8,1
	c-8.7,1.6-16.2,5.4-22.5,10.9c-5.6,5-11.7,9.2-17.7,13.5C215.5,382,165,382,114.5,382z" />
	<path class="st4" d="M118.9,107.5c-9.6-8.4-16.6-19-25.3-28.3c-14-15-25.2-32.6-41.7-45.5c-9.6-7.5-20-12.9-32.5-13.2
	c-1.5,0-3-0.1-4-1.6C35.1-2.6,70.3-1.7,88.4,21.7C105.1,43.5,121,65.9,137.2,88c0.3,4.4-3.4,6.2-5.8,8.7c-3.5,3.7-7,7.4-10.6,11.1
	C120.1,108.1,119.4,108,118.9,107.5z" />
	<path class="st5" d="M213.5,206.5c-0.6,8.1,0.4,15.9,4.7,23c2.5,4.1,0.2,7.3-2.6,9.8c-2.9,2.6-6.5,2.2-9.8,0.5
	c-1.1-0.6-1.9-1.6-2.8-2.5c-28.8-28.8-57.6-57.6-86.3-86.4c-0.9-0.9-1.5-2-2.3-3c0-6.2,5.7-8.3,9-12c2.4-2.8,5.7-4.9,9-6.6
	c3.2-0.9,5.2,1.1,7.1,3.1C164.3,157.1,189.1,181.5,213.5,206.5z" />
	<path class="st6" d="M213.5,206.5c-3.5-0.1-5.1-2.9-7.1-4.9c-22.3-22.2-44.4-44.4-66.7-66.6c-2.1-2-3.7-4.9-7.1-4.9
	c-0.1-0.3-0.2-0.7-0.4-1c3.7-6.1,7.7-12.1,15.3-14c15.5,15.8,31.1,31.6,46.6,47.3c5.8,5.8,11.4,11.9,17.5,17.4
	c6.9,6.2,8.6,13,4.1,21.3C214.7,202.7,214.2,204.6,213.5,206.5z" />
	<path class="st3" d="M321.7,308.3c-8.6,0-17.2,0-25.8,0c14.1-4.4,25.6-11.8,27.9-27.7c1.6-11-2.5-20.3-11.6-26.7
	c-7.6-5.3-15.8-5.5-23.9-0.4c-9.1,5.8-11.4,14.7-5.6,23.8c2.4,3.7,5.5,7.8,0.6,10.9c-5,3.1-8.1-1-10.7-5.1
	c-6.6-10.5-5.7-24,2.2-33.4c8.5-10.2,25-14.1,37.5-9c23.8,9.8,31.1,42.7,13.7,62.4C324.5,304.9,323.1,306.6,321.7,308.3z" />
	<path class="st7" d="M222.4,308.4c-9.4-4.3-19.8-6.2-28.9-11.5c-14.5-8.6-25-21-34-34.8c-2.9-4.4-6.4-6.2-11.8-6.1
	c-32.7,0.2-65.3,0-98,0c2.2-1.7,4.8-1.1,7.2-1.1c38.1-0.1,76.3,0,114.4-0.3c7.3-0.1,12.2,2.6,15.9,8.8
	c11.3,18.7,26.6,32.8,47.6,39.9c6.7,2.3,13.8,3.5,20.8,5.2C244.6,308.4,233.5,308.4,222.4,308.4z" />
	<path class="st0" d="M141.5,308.6c7.5,0,14.9,0,22.4,0c-8.4,3.4-15.1,9.3-22,15c-7.6,6.3-16.5,10.3-26.6,10.3
	c-25.2,0.1-50.4,0-75.6,0c0-4,0-7.9,0-11.9c3.1-2.9,7-2.2,10.7-2.3c19-0.1,38-0.3,57,0.1c10.1,0.2,19.4-1.2,27.4-7.9
	C136.7,310.4,139.4,310,141.5,308.6z" />
	<path class="st1" d="M141.5,308.6c-7.9,8.5-17.1,13.7-29.3,13.5C88,321.7,63.9,322,39.7,322c0-4.5,0-9,0-13.5
	C73.6,308.6,107.6,308.6,141.5,308.6z" />
	<path class="st6" d="M132.5,130c-5.6,6.4-13.3,10.7-18,18c-12.6,5-16.7,3.6-27-8.9c10.7-10.3,21.5-20.5,31.4-31.7
	c0.5-0.2,1-0.3,1.4-0.5C129.5,111.9,134.1,119.3,132.5,130L132.5,130z" />
	<path class="st1" d="M287,381.9c7-9.1,16.4-13.3,27.8-13.4c8,0,16-0.1,24,0c2.3,0,5.4-1.2,6.5,2.1c1,2.9-0.2,5.3-2.4,7.4
	c-1.3,1.2-2.2,2.7-3.3,4C322,382,304.5,381.9,287,381.9z" />
	<path class="st8" d="M132.5,130c-0.6-9.5-5.9-16.5-12.2-23c5.6-6.3,11.3-12.6,16.9-19c1.6,1.9,2.9,4.1,4.8,5.6
	c7.2,5.8,8.6,13,5.4,21.3C141.9,119.5,136.9,124.4,132.5,130z" />
	<path class="st9" d="M82.3,268c4,0,7.9,0,11.9,0c3.1,0,5.5,1.4,6.4,4.2c1,3.3-1.5,5.5-4.1,6.2c-9.4,2.7-19,2.6-28.4,0
	c-2.5-0.7-4-3.1-3.5-5.9c0.6-3,2.6-4.6,5.8-4.6C74.3,268.1,78.3,268,82.3,268z" />
	<path class="st9" d="M137.5,292c-4,0-7.9,0-11.9,0c-3.4-0.1-6.1-1.7-6.2-5.1c-0.1-3.4,2.6-5.3,6-5.3c8.2-0.1,16.4-0.1,24.6,0
	c3.4,0,6.2,1.7,6.2,5.1c0,3.8-3,5.4-6.7,5.4C145.5,292,141.5,292,137.5,292z" />
</svg>
