<svg xmlns="http://www.w3.org/2000/svg"
	xmlns:xlink="http://www.w3.org/1999/xlink" x="0px" y="0px" viewBox="0 0 384 384" style="enable-background:new 0 0 384 384;" xml:space="preserve">

	<style type="text/css">
	.st0 {
		fill: #c6855b;
	}
	.st1 {
		fill: #879fae;
	}
	.st2 {
		fill: #b36d3c;
	}
	.st3 {
		fill: #617983;
	}
	.st4 {
		fill: #d7aa8b;
	}
	.st5 {
		fill: #c6865b;
	}
	.st6 {
		fill: #935344;
	}
	.st7 {
		fill: #869fae;
	}
	.st8 {
		fill: #607882;
	}
	.st9 {
		fill: #925141;
	}
	</style>

	<path class="st0" d="M24.7,37.1C36.6,25.1,48.6,13,60.5,1c3,0,6,0,9,0c3.9,1.2,6.9,3.6,9.8,6.4c44.5,44.6,89.1,89.2,133.6,133.8
	c2.4,2.4,5.5,4.5,6,8.3c-0.1,2.1-1.2,3.9-2.8,5c-7.7,5.5-12.8,14.2-22,17.9c-18.9-19.1-38-38.1-57.1-57.1c-2.4-2.4-5.3-7.5-9-4
	c-4.2,3.9,0.9,7.1,3.4,9.7c16.5,16.7,33.1,33.2,49.6,49.8c2.3,2.3,5,4.2,6.1,7.5c-2.8,7.8-10.5,10.8-15.6,16.3
	c-5,5.4-11.1,9.9-16.5,15c-2.4,2.3-5,5.2-9.1,3c-46.5-46.4-93-92.7-139.4-139.2C0.2,67.1,0.3,61.5,6.3,55c3.4-3.6,7.1-6.9,10.7-10.3
	c3.5,0.7,5.3,3.6,7.6,5.8C41,66.7,57.2,83,73.5,99.2c1.4,1.4,2.8,2.9,4.3,4.1c1.5,1.2,3.1,1.8,4.7,0.3c1.4-1.3,1.5-3.1,0.8-4.9
	c-0.9-2.4-2.9-4-4.7-5.8C62.6,76.9,46.5,60.8,30.5,44.7C28.3,42.4,25.4,40.6,24.7,37.1z" />
	<path class="st1" d="M236.1,87.8c-16.2-11.5-32.6-22.8-48.7-34.5c-6.2-4.5-8.1-12-3.3-16.9C195.9,24.2,206.9,11,221,1
	c1.5,0,3,0,4.5,0c4.7,2.1,7.8,5.8,10.7,9.9c9.2,13.3,18.7,26.5,28,39.7C255.4,63.5,247.3,76.8,236.1,87.8z" />
	<path class="st2" d="M378.6,310c2.5,2.5,5,5,7.4,7.5c0,3,0,6,0,9c-14.5,14.4-29,28.8-43.5,43.3c-1.2-0.5-2-1.4-2.9-2.2
	c-2.2-2.1-4.6-3-7-0.5c-2.5,2.6-0.2,4.4,1.5,6.1c0.9,0.9,1.8,1.7,2.2,2.8c-10.2,11.8-15.7,12.1-25.3,1.5c-0.1-4,3.3-2.9,5.4-3.5
	c7.7-2.2,8.4-4.7,2.8-10.6c-4.5-4.7-9.2-9.1-13.7-13.8c-3.2-3.4-4.9-7.2-1.5-11.3c3.7-4.4,7.6-2.4,11.2,0.3
	c6.1,4.4,11,10.1,16.2,15.5c3.1,3.2,4.9,4.4,8.6,0.3c8.8-9.5,18.2-18.5,27.4-27.6c3.9-3.9,7.7-7.8,8.2-13.8
	C375.6,311.6,375.9,309.4,378.6,310z" />
	<path class="st3" d="M386,223c-7.3,6.1-16.6,3.4-21.1-6c10.1-2.6,9.9-2.6,10.1-13.7c0.5-25.1-4.1-48.9-16.7-71
	c-1.1-2-3.5-4.7,0.4-6.6c14.9,18.8,23.1,40.4,25.8,64.2c0.2,1.6-0.6,3.6,1.5,4.6C386,204,386,213.5,386,223z" />
	<path class="st0" d="M378.6,310c-1.8,14.9-14.6,21.7-23.3,31.4c-5,5.6-10.7,10.5-15.8,16c-3,3.3-4.8,2.8-7.7-0.1
	c-6-6-11.4-12.6-18.4-17.6c-2.8-2-5.3-4.1-8.3-0.5c-3,3.6-1.4,6.3,1.4,9.1c5.2,5.1,10.3,10.2,15.3,15.4c1.8,1.9,5,3.5,3.7,6.7
	c-1.2,3.3-4.4,4.6-7.6,5.5c-2.3,0.6-5.1-0.7-7,1.7C271.5,338,232,298.5,192.6,259c1.9-7.7,8.9-11.6,13.5-17.3
	c6.4-7.8,12.9-15.5,20.6-22.2c0.7-0.2,1.4-0.2,2.1,0c7.7,5.6,13.7,13,20.5,19.6c13.7,13.5,27.2,27.1,40.8,40.7
	c0.9,0.9,1.7,1.8,2.7,2.6c2.4,1.9,4.9,5.7,8.1,2.5c3.2-3.2-0.3-6-2.5-8.2c-18.6-18.8-37.3-37.4-56-56.1c-1.8-1.8-3.5-3.5-5.2-5.4
	c-2.6-2.9-2.7-6,0.2-8.6c6.6-6.1,11.2-14,18.2-19.7c24.9,24.7,49.8,49.4,74.7,74.3C346.4,277.4,362.4,293.7,378.6,310z" />
	<path class="st4" d="M218.1,149.4c6.8-4.1,11.7-10.3,18-15.1c9.3,4,15.4,11.2,20.3,19.7c-2,6.5-7.6,10.5-11.8,15.1
	c-20,21.9-39.7,44.1-59.4,66.1c-19.6,21.9-39.4,43.6-58.8,65.7c-14.7,16.6-29.6,33-44.5,49.4c-6.2,6.8-12,14-18.7,20.4
	c-8.9,8.4-14.1,9.3-24.5,3.2c-1.1-0.6-2-1.5-3.4-1.3c-9.6-7.2-16.3-16.7-20.6-27.7c-2.1-5.4-1.1-10.6,3.7-14.9
	c29.1-26.1,58.1-52.4,87.2-78.6c12.4-11.2,24.8-22.3,37.2-33.5c1.6-1.5,3.7-2.7,3.3-5.5c1.8-0.7,4.1-1,5.5-2.2
	c11.8-10.7,23.5-21.5,35.2-32.3c1.2-3.5,3.1-6.3,7.4-6.2C201.9,164.4,211,158,218.1,149.4z" />
	<path class="st5" d="M35.2,372.7c1-1.2,2.1-0.7,3.3-0.2c14.1,5.8,15,6,25.1-5c21.6-23.7,42.9-47.7,64.3-71.6
	c15-16.6,30.1-33.1,45.1-49.8c19.9-22.2,39.7-44.6,59.6-66.8c7.6-8.5,15.3-17,23-25.5c5.2,0.7,8.1,3.7,8.8,8.8
	c-5.5,5.6-12,10.5-14.9,18.3c-6.9,7.9-14,15.6-21,23.4c-2.4,3.4-5.5,6.1-8.3,9.2c-11.6,12.8-22.5,26.3-35.3,38
	c-13.4,12-24.4,26.2-36.5,39.4c-25.9,28.4-51.4,57.1-77.1,85.6c-9.1,10.1-12.7,10.6-24.6,4.2C42.6,378.6,38.7,376,35.2,372.7z" />
	<path class="st1" d="M172.3,367.2c-11.5,0-23,0-34.5,0c-4,0-8.1-0.6-8.1-5.6c0.1-5,4.2-5.4,8.2-5.4c22.7,0,45.5,0,68.2,0.1
	c4.1,0,7.4-0.2,7.4-5.7c0-3.2,2.4-4.8,5.6-4.6c3.4,0.2,5,2.2,5.1,5.3c0.1,7,0.1,14,0,21c-0.1,3.2-1.9,5.1-5.2,5.2
	c-3.2,0.1-5.6-1.5-5.5-4.8c0.1-5.7-3.5-5.6-7.5-5.5C194.7,367.3,183.5,367.2,172.3,367.2z" />
	<path class="st2" d="M24.7,37.1c19.7,19.5,39.4,38.9,59,58.5c3.1,3.1,3.4,6.7,0.4,10c-3.7,4-6.2,0.7-8.6-1.8
	C56,84,36.5,64.3,17.1,44.6C19.6,42.1,22.2,39.6,24.7,37.1z" />
	<path class="st2" d="M184.9,251.6c3.2-8.1,11-12.4,16-19.2c5.4-7.2,12.3-13.3,18.6-19.9c4.8,0.2,7.4,2.6,7.5,7.5
	c-10.7,13.6-22.9,26-34.4,38.9C190,256.5,187.5,254,184.9,251.6z" />
	<path class="st6" d="M336.3,376c-8.7-4.3-9.9-7.4-4-11.4c5.9-4,8.2,0.6,10.2,5.2C340.4,371.8,338.3,373.9,336.3,376z" />
	<path class="st2" d="M193.9,171.9c-2.5,2.1-4.9,4.1-7.4,6.2c-20-19.8-40.1-39.6-60.1-59.5c-2.7-2.7-3.9-6-0.5-9.1
	c3.3-3,6.1-1.7,9,1.2c18.6,18.8,37.4,37.5,56.1,56.2C192.5,168.3,194.1,169.6,193.9,171.9z" />
	<path class="st7" d="M264.4,162.7c-2.4-3.5-5.4-6.4-8.8-8.8c-6-7-12.5-13.6-19.5-19.5c-1.1-1.4-2.1-2.8-3.2-4
	c-5.8-6.5-6.2-11.5-1-18.7c4.3-5.8,8.7-11.5,13.1-17.3c-0.1-0.2-0.4-0.5-0.3-0.7c7-12.8,15.4-24.6,26.2-34.5
	c7.5-8.8,13.5-10,20.7-2.8c21.9,21.9,44.6,43,65.2,66.2c0.8,0.9,1.3,2.1,2,3.1c-1.7,1.4-0.5,2.7,0.2,3.9
	c15.4,24.8,19.1,52.2,18.2,80.6c-0.3,8.7-1.7,9.5-12.2,6.8c-5.1-10.3-5.5-22.1-10.4-32.5c-4.8-10.2-9.6-20.3-19.5-26.7
	c-8.6-8.8-18.2-11-29.8-5.8c-8.2,3.6-16.9,6.2-25.3,9.4c-4.6,1.8-9.1,2.5-13.9,1.7C265.4,163,264.9,162.8,264.4,162.7z" />
	<path class="st8" d="M270.8,59.2c-8.6,11.7-17.3,23.5-25.9,35.2c-2.9-2.2-5.9-4.4-8.8-6.5c8.9-12.8,17-26.1,28.2-37.2
	C266.5,53.5,268.6,56.3,270.8,59.2z" />
	<path class="st2" d="M227.1,203.5c7.7-7.3,12.7-17.4,22.5-22.6c2,2,4,4,6,6c-3.4,7-8.5,12.8-14.3,17.8c-5,4.4-5.4,7.3-0.2,12.3
	c19.4,18.7,38.3,38,57.3,57.1c1.8,1.8,3.4,3.6,5,5.6c1.7,2.3,1.6,4.7-0.4,6.8c-2.2,2.4-4.7,2.6-7.4,0.8c-0.6-0.4-1.3-0.8-1.8-1.3
	c-21.8-22-43.5-44-65.3-66c-0.1-0.2-0.3-0.6-0.2-0.7C232.8,213.7,231.2,208.5,227.1,203.5z" />
	<path class="st8" d="M265.9,163.1c16.2-3.3,31-11.2,46.9-15.4c9.5-2.5,17,1.1,22.1,10.1c-7.3-3.3-14.4-2.7-21.7,0.3
	c-8.7,3.6-17.7,6.6-26.5,9.9C276,172.1,273.9,171.6,265.9,163.1z" />
	<path class="st9" d="M227.1,203.5c8.9,7.1,8.9,7.1,1.4,16.5c-0.5,0-1,0-1.5,0c-1.9-3.1-4.4-5.6-7.5-7.5
	C222,209.5,224.5,206.5,227.1,203.5z" />
</svg>
